<svg width="568" height="44" viewBox="0 0 568 44" fill="none" xmlns="http://www.w3.org/2000/svg">
<path d="M12.9363 33.1329C10.4136 33.1329 8.16955 32.5902 6.20417 31.5049C4.23878 30.3902 2.71341 28.8648 1.62804 26.9287C0.542681 24.9633 0 22.7339 0 20.2405C0 19.7419 0.0586683 18.9645 0.176005 17.9085L0.264007 17.0725C0.645351 14.1684 1.61338 11.543 3.16809 9.19625C4.75213 6.84952 6.73218 5.00147 9.10825 3.6521C11.4843 2.30273 14.0217 1.62804 16.7205 1.62804C19.2139 1.62804 21.4286 2.20006 23.3646 3.34409C25.3007 4.45879 26.8114 6.02816 27.8968 8.05221C28.9821 10.0469 29.5248 12.3057 29.5248 14.8284C29.5248 15.3271 29.4661 16.1044 29.3488 17.1605L29.2608 17.9965C28.8794 20.9006 27.9114 23.5113 26.3567 25.8287C24.8313 28.1168 22.8953 29.9061 20.5486 31.1968C18.2018 32.4875 15.6644 33.1329 12.9363 33.1329ZM12.8483 31.4608C15.2537 31.4608 17.5125 30.8742 19.6245 29.7008C21.7366 28.4981 23.482 26.8701 24.8607 24.8167C26.2687 22.7339 27.1341 20.4312 27.4567 17.9085L27.5887 17.0725C27.6767 16.3684 27.7207 15.6938 27.7207 15.0484C27.7207 12.819 27.2514 10.8243 26.3127 9.06424C25.374 7.27486 24.054 5.88149 22.3526 4.88413C20.6806 3.88677 18.7738 3.38809 16.6324 3.38809C14.2564 3.38809 12.0123 4.00411 9.90027 5.23614C7.81754 6.43884 6.07216 8.09622 4.66413 10.2083C3.25609 12.291 2.37606 14.6084 2.02405 17.1605L1.93605 17.9965C1.84805 18.7005 1.80405 19.3899 1.80405 20.0645C1.80405 22.2646 2.25873 24.23 3.16809 25.9607C4.10678 27.6914 5.41215 29.0408 7.08419 30.0088C8.75624 30.9768 10.6776 31.4608 12.8483 31.4608Z" fill="#4C55B7"/>
<path d="M50.7289 33.0009C49.2622 33.0009 47.9275 32.7369 46.7248 32.2089C45.5514 31.6515 44.4367 30.8155 43.3807 29.7008L44.5247 28.5128C46.3141 30.3902 48.4115 31.3288 50.8169 31.3288C52.6063 31.3288 54.1023 30.8302 55.305 29.8328C56.5371 28.8354 57.1531 27.5154 57.1531 25.8727C57.1531 25.1687 56.9477 24.5673 56.5371 24.0686C56.1557 23.57 55.613 23.13 54.909 22.7486C54.2343 22.3673 53.193 21.8539 51.7849 21.2086C50.4942 20.6512 49.4822 20.1672 48.7488 19.7565C48.0448 19.3459 47.4581 18.8472 46.9888 18.2605C46.5488 17.6445 46.3288 16.8965 46.3288 16.0164C46.3288 15.7231 46.3434 15.4884 46.3728 15.3124C46.6075 13.699 47.3701 12.4083 48.6608 11.4403C49.9515 10.4429 51.5649 9.94427 53.501 9.94427C55.3197 9.94427 56.9624 10.4723 58.4291 11.5283L57.4611 12.8483C56.1997 12.027 54.8797 11.6163 53.501 11.6163C51.9756 11.6163 50.6996 12.027 49.6729 12.8483C48.6755 13.6697 48.1768 14.7111 48.1768 15.9724C48.1768 16.4418 48.3235 16.8671 48.6168 17.2485C48.9395 17.6005 49.4382 17.9818 50.1129 18.3925C50.7876 18.7738 51.8436 19.3165 53.281 20.0205C54.7477 20.6952 55.8624 21.2672 56.6251 21.7366C57.3877 22.1766 57.9744 22.7046 58.3851 23.3206C58.8251 23.9073 59.0451 24.6553 59.0451 25.5647C59.0451 25.77 59.0158 26.078 58.9571 26.4887C58.6931 28.4834 57.8131 30.0675 56.317 31.2408C54.821 32.4142 52.9583 33.0009 50.7289 33.0009Z" fill="#4C55B7"/>
<path d="M71.099 32.9129C68.547 32.9129 66.6109 32.0769 65.2909 30.4048C64.0002 28.7328 63.3548 26.562 63.3548 23.8926C63.3548 23.13 63.3988 22.3819 63.4868 21.6486C63.9268 18.2165 65.1882 15.4738 67.2709 13.4204C69.383 11.3376 72.0377 10.2963 75.2351 10.2963C76.8192 10.2963 78.5352 10.4283 80.3833 10.6923H82.5394L80.4713 26.3567C80.4126 26.7381 80.3833 27.2807 80.3833 27.9848C80.3833 29.5688 80.706 30.8008 81.3513 31.6809L80.2073 32.6929C79.6499 32.1649 79.2539 31.5929 79.0193 30.9768C78.8139 30.3315 78.6232 29.4955 78.4472 28.4688C77.7139 29.9061 76.7019 31.0062 75.4112 31.7689C74.1205 32.5315 72.6831 32.9129 71.099 32.9129ZM71.187 31.1528C72.5951 31.1528 73.8858 30.8008 75.0591 30.0968C76.2618 29.3635 77.2005 28.4248 77.8752 27.2807C78.4326 26.43 78.7992 25.4327 78.9753 24.2887L80.6033 12.2763C80.2806 12.3057 79.7819 12.3057 79.1073 12.2763C78.4619 12.2177 77.9779 12.1883 77.6552 12.1883C76.6285 12.1003 75.7338 12.0563 74.9711 12.0563C73.2111 12.0563 71.6271 12.4963 70.219 13.3764C68.8403 14.227 67.7256 15.3857 66.8749 16.8525C66.0242 18.3192 65.4816 19.9472 65.2469 21.7366C65.1589 22.3526 65.1149 22.954 65.1149 23.5406C65.1149 25.7114 65.6282 27.5301 66.6549 28.9968C67.6816 30.4342 69.1923 31.1528 71.187 31.1528Z" fill="#4C55B7"/>
<path d="M93.9876 32.9129C92.5209 32.9129 91.1422 32.8249 89.8514 32.6489C88.7368 32.5022 87.8274 32.3115 87.1234 32.0769L91.2595 0.528013H93.0635L91.1715 14.5204C91.9928 13.083 93.0635 12.027 94.3836 11.3523C95.7036 10.6483 97.1116 10.2963 98.6077 10.2963C100.984 10.2963 102.846 11.1176 104.196 12.7603C105.545 14.3737 106.22 16.5738 106.22 19.3605C106.22 19.8592 106.161 20.6366 106.044 21.6926C105.604 25.0367 104.387 27.7501 102.392 29.8328C100.426 31.8862 97.625 32.9129 93.9876 32.9129ZM93.9876 31.2408C97.1263 31.2408 99.5317 30.3315 101.204 28.5128C102.876 26.6647 103.902 24.3473 104.284 21.5606C104.372 20.7979 104.416 20.1085 104.416 19.4925C104.416 17.1165 103.858 15.2684 102.744 13.9484C101.658 12.6283 100.221 11.9683 98.4317 11.9683C97.669 11.9683 96.877 12.115 96.0556 12.4083C95.2636 12.7017 94.5302 13.083 93.8556 13.5524C92.1542 14.6964 91.1128 16.2071 90.7315 18.0845L89.0594 30.7568L91.5235 31.1088C92.0515 31.1968 92.8729 31.2408 93.9876 31.2408Z" fill="#4C55B7"/>
<path d="M119.038 32.9129C116.281 32.9129 114.081 32.0622 112.438 30.3608C110.825 28.6594 110.018 26.386 110.018 23.5406C110.018 22.8953 110.062 22.2499 110.15 21.6046C110.443 19.4045 111.133 17.4538 112.218 15.7524C113.304 14.0217 114.682 12.687 116.354 11.7483C118.056 10.7803 119.904 10.2963 121.898 10.2963C124.626 10.2963 126.812 11.1616 128.455 12.8923C130.097 14.6231 130.919 16.9258 130.919 19.8005C130.919 20.4166 130.875 21.0619 130.787 21.7366C130.493 23.9366 129.804 25.8874 128.719 27.5887C127.663 29.2608 126.284 30.5662 124.582 31.5049C122.91 32.4435 121.062 32.9129 119.038 32.9129ZM119.126 31.2408C120.798 31.2408 122.338 30.8302 123.746 30.0088C125.184 29.1875 126.357 28.0288 127.267 26.5327C128.205 25.0367 128.792 23.3206 129.027 21.3846C129.115 20.7979 129.159 20.2259 129.159 19.6685C129.159 17.3218 128.499 15.4591 127.179 14.0804C125.859 12.6723 124.069 11.9683 121.81 11.9683C120.138 11.9683 118.598 12.379 117.19 13.2004C115.782 14.0217 114.609 15.1804 113.67 16.6764C112.761 18.1432 112.174 19.8299 111.91 21.7366C111.822 22.3526 111.778 22.9246 111.778 23.4526C111.778 25.8287 112.438 27.7207 113.758 29.1288C115.078 30.5368 116.868 31.2408 119.126 31.2408Z" fill="#4C55B7"/>
<path d="M145.695 10.2963C146.106 10.2963 146.84 10.3989 147.896 10.6043L147.764 12.2763C146.942 12.1297 146.253 12.0563 145.695 12.0563C144.082 12.0563 142.718 12.4817 141.603 13.3324C141.105 13.7137 140.562 14.2124 139.975 14.8284C139.418 15.4151 138.934 16.0458 138.523 16.7204L136.411 32.4729H134.607L136.719 16.5444C136.807 15.8404 136.851 15.2244 136.851 14.6964C136.851 13.963 136.763 13.347 136.587 12.8483C136.441 12.3497 136.191 11.8363 135.839 11.3083L137.115 10.2083C137.673 10.8243 138.083 11.5283 138.347 12.3203C138.641 13.083 138.773 13.875 138.743 14.6964C139.213 13.9044 139.741 13.2004 140.327 12.5843C140.914 11.9683 141.471 11.499 141.999 11.1763C143.026 10.5896 144.258 10.2963 145.695 10.2963Z" fill="#4C55B7"/>
<path d="M175.729 28.6448C174.996 30.0821 173.984 31.1528 172.693 31.8569C171.432 32.5609 170.009 32.9129 168.425 32.9129C165.902 32.9129 163.981 32.0915 162.661 30.4488C161.341 28.7768 160.681 26.5914 160.681 23.8926C160.681 23.394 160.739 22.6166 160.857 21.5606C161.326 18.0992 162.602 15.3564 164.685 13.3324C166.797 11.3083 169.642 10.2963 173.221 10.2963C174.189 10.2963 175.274 10.3696 176.477 10.5163C177.709 10.663 178.809 10.8683 179.777 11.1323L175.509 43.9572H173.705L175.729 28.6448ZM168.425 31.2408C169.54 31.2408 170.64 30.9768 171.725 30.4488C172.84 29.9208 173.793 29.2021 174.585 28.2928C175.377 27.3541 175.905 26.298 176.169 25.1247L177.885 12.4963C176.418 12.203 174.908 12.0563 173.353 12.0563C170.038 12.0563 167.515 12.907 165.785 14.6084C164.083 16.2804 163.042 18.5685 162.661 21.4726C162.573 22.2059 162.529 22.91 162.529 23.5846C162.529 25.8727 163.027 27.7207 164.025 29.1288C165.051 30.5368 166.518 31.2408 168.425 31.2408Z" fill="#4C55B7"/>
<path d="M190.836 32.8249C188.753 32.8249 187.183 32.3555 186.127 31.4168C185.071 30.4782 184.543 29.0995 184.543 27.2807C184.543 26.9874 184.573 26.518 184.631 25.8727L186.655 10.5163H188.459L186.523 25.4767C186.465 26.122 186.435 26.562 186.435 26.7967C186.435 29.7008 187.961 31.1528 191.012 31.1528C192.596 31.1528 193.989 30.7422 195.192 29.9208C196.424 29.0994 197.729 27.8674 199.108 26.2247L201.176 10.5163H202.98L200.912 26.2687C200.824 26.8261 200.78 27.3541 200.78 27.8527C200.78 29.3488 201.117 30.5955 201.792 31.5929L200.604 32.6049C200.076 32.1355 199.68 31.5342 199.416 30.8008C199.152 30.0675 199.02 29.3341 199.02 28.6008C199.02 28.2194 199.034 27.9554 199.064 27.8088C197.773 29.6568 196.482 30.9622 195.192 31.7249C193.901 32.4582 192.449 32.8249 190.836 32.8249Z" fill="#4C55B7"/>
<path d="M208.766 22.2206C208.678 22.7486 208.634 23.4233 208.634 24.2447C208.634 26.1514 209.104 27.8087 210.042 29.2168C211.01 30.5955 212.756 31.2848 215.279 31.2848C216.452 31.2848 217.581 31.1088 218.667 30.7568C219.752 30.4048 220.984 29.8621 222.363 29.1288L223.067 30.5808C221.864 31.3142 220.559 31.9009 219.151 32.3409C217.772 32.7515 216.379 32.9569 214.971 32.9569C212.33 32.9569 210.306 32.1942 208.898 30.6688C207.52 29.1141 206.83 27.0021 206.83 24.3327C206.83 23.6286 206.874 22.91 206.962 22.1766C207.256 19.8592 207.901 17.8058 208.898 16.0164C209.896 14.1977 211.157 12.7897 212.682 11.7923C214.237 10.795 215.953 10.2963 217.831 10.2963C220.089 10.3256 221.908 11.0443 223.287 12.4523C224.665 13.831 225.355 15.6644 225.355 17.9525C225.355 18.5978 225.325 19.0965 225.267 19.4485C225.091 20.4166 224.915 21.3406 224.739 22.2206H208.766ZM223.243 20.4606C223.389 19.9619 223.477 19.5365 223.507 19.1845C223.565 18.6565 223.595 18.2752 223.595 18.0405C223.595 16.2218 223.037 14.7404 221.923 13.5964C220.837 12.4523 219.459 11.8803 217.787 11.8803C215.763 11.8803 213.944 12.687 212.33 14.3004C210.746 15.8844 209.661 17.9672 209.074 20.5486L223.243 20.4606Z" fill="#4C55B7"/>
<path d="M243.286 16.8965C243.344 16.5444 243.374 16.0311 243.374 15.3564C243.374 13.831 243.036 12.5697 242.362 11.5723L243.506 10.5603C244.092 11.1176 244.503 11.7483 244.738 12.4523C245.002 13.1564 245.134 14.007 245.134 15.0044C247.04 11.8657 249.548 10.2963 252.658 10.2963C254.183 10.2963 255.415 10.6923 256.354 11.4843C257.322 12.247 257.909 13.391 258.114 14.9164C259.082 13.3617 260.211 12.203 261.502 11.4403C262.822 10.6776 264.216 10.2963 265.682 10.2963C267.413 10.2963 268.777 10.795 269.774 11.7923C270.772 12.7603 271.27 14.1244 271.27 15.8844C271.27 16.4711 271.241 16.9258 271.182 17.2485L269.026 32.4729H267.31L269.334 17.6445C269.393 17.2925 269.422 16.7938 269.422 16.1484C269.422 13.3617 268.088 11.9683 265.418 11.9683C262.573 11.9683 260.153 13.5524 258.158 16.7204L256.09 32.4729H254.286L256.222 17.6445C256.281 17.3218 256.31 16.8671 256.31 16.2804C256.31 14.9311 255.973 13.875 255.298 13.1124C254.653 12.3497 253.699 11.9683 252.438 11.9683C250.971 11.9683 249.548 12.4377 248.17 13.3764C246.82 14.2857 245.808 15.3857 245.134 16.6764L243.022 32.4729H241.218L243.286 16.8965Z" fill="#4C55B7"/>
<path d="M284.601 32.9129C281.844 32.9129 279.644 32.0622 278.001 30.3608C276.388 28.6594 275.581 26.386 275.581 23.5406C275.581 22.8953 275.625 22.2499 275.713 21.6046C276.006 19.4045 276.696 17.4538 277.781 15.7524C278.867 14.0217 280.245 12.687 281.917 11.7483C283.619 10.7803 285.467 10.2963 287.461 10.2963C290.19 10.2963 292.375 11.1616 294.018 12.8923C295.66 14.6231 296.482 16.9258 296.482 19.8005C296.482 20.4166 296.438 21.0619 296.35 21.7366C296.056 23.9366 295.367 25.8874 294.282 27.5887C293.226 29.2608 291.847 30.5662 290.146 31.5049C288.473 32.4435 286.625 32.9129 284.601 32.9129ZM284.689 31.2408C286.361 31.2408 287.901 30.8302 289.31 30.0088C290.747 29.1875 291.92 28.0288 292.83 26.5327C293.768 25.0367 294.355 23.3206 294.59 21.3846C294.678 20.7979 294.722 20.2259 294.722 19.6685C294.722 17.3218 294.062 15.4591 292.742 14.0804C291.422 12.6723 289.632 11.9683 287.373 11.9683C285.701 11.9683 284.161 12.379 282.753 13.2004C281.345 14.0217 280.172 15.1804 279.233 16.6764C278.324 18.1432 277.737 19.8299 277.473 21.7366C277.385 22.3526 277.341 22.9246 277.341 23.4526C277.341 25.8287 278.001 27.7207 279.321 29.1288C280.641 30.5368 282.431 31.2408 284.689 31.2408Z" fill="#4C55B7"/>
<path d="M311.259 10.2963C311.669 10.2963 312.403 10.3989 313.459 10.6043L313.327 12.2763C312.505 12.1297 311.816 12.0563 311.259 12.0563C309.645 12.0563 308.281 12.4817 307.166 13.3324C306.668 13.7137 306.125 14.2124 305.538 14.8284C304.981 15.4151 304.497 16.0458 304.086 16.7204L301.974 32.4729H300.17L302.282 16.5444C302.37 15.8404 302.414 15.2244 302.414 14.6964C302.414 13.963 302.326 13.347 302.15 12.8483C302.004 12.3497 301.754 11.8363 301.402 11.3083L302.678 10.2083C303.236 10.8243 303.646 11.5283 303.91 12.3203C304.204 13.083 304.336 13.875 304.306 14.6964C304.776 13.9044 305.304 13.2004 305.89 12.5843C306.477 11.9683 307.034 11.499 307.562 11.1763C308.589 10.5896 309.821 10.2963 311.259 10.2963Z" fill="#4C55B7"/>
<path d="M321.657 32.9129C319.104 32.9129 317.168 32.0769 315.848 30.4048C314.558 28.7328 313.912 26.562 313.912 23.8926C313.912 23.13 313.956 22.3819 314.044 21.6486C314.484 18.2165 315.746 15.4738 317.828 13.4204C319.941 11.3376 322.595 10.2963 325.793 10.2963C327.377 10.2963 329.093 10.4283 330.941 10.6923H333.097L331.029 26.3567C330.97 26.7381 330.941 27.2807 330.941 27.9848C330.941 29.5688 331.263 30.8008 331.909 31.6809L330.765 32.6929C330.207 32.1649 329.811 31.5929 329.577 30.9768C329.371 30.3315 329.181 29.4955 329.005 28.4688C328.271 29.9061 327.259 31.0062 325.969 31.7689C324.678 32.5315 323.241 32.9129 321.657 32.9129ZM321.745 31.1528C323.153 31.1528 324.443 30.8008 325.617 30.0968C326.819 29.3635 327.758 28.4248 328.433 27.2807C328.99 26.43 329.357 25.4327 329.533 24.2887L331.161 12.2763C330.838 12.3057 330.339 12.3057 329.665 12.2763C329.019 12.2177 328.535 12.1883 328.213 12.1883C327.186 12.1003 326.291 12.0563 325.529 12.0563C323.769 12.0563 322.185 12.4963 320.777 13.3764C319.398 14.227 318.283 15.3857 317.432 16.8525C316.582 18.3192 316.039 19.9472 315.804 21.7366C315.716 22.3526 315.672 22.954 315.672 23.5406C315.672 25.7114 316.186 27.5301 317.212 28.9968C318.239 30.4342 319.75 31.1528 321.745 31.1528Z" fill="#4C55B7"/>
<path d="M351.441 16.8965C351.5 16.5444 351.529 16.0311 351.529 15.3564C351.529 13.831 351.192 12.5697 350.517 11.5723L351.661 10.5603C352.864 11.6163 353.392 13.1417 353.245 15.1364C354.448 13.435 355.694 12.203 356.985 11.4403C358.305 10.6776 359.86 10.2963 361.649 10.2963C363.585 10.2963 365.067 10.751 366.093 11.6603C367.149 12.5697 367.677 13.919 367.677 15.7084C367.677 16.2071 367.633 16.7204 367.545 17.2485L365.433 32.4729H363.717L365.697 17.6445C365.756 16.9991 365.785 16.5444 365.785 16.2804C365.785 13.4057 364.319 11.9683 361.385 11.9683C359.801 11.9683 358.378 12.3643 357.117 13.1564C355.885 13.9484 354.594 15.1657 353.245 16.8085L351.177 32.4729H349.373L351.441 16.8965Z" fill="#4C55B7"/>
<path d="M379.838 32.9129C377.286 32.9129 375.35 32.0769 374.03 30.4048C372.739 28.7328 372.094 26.562 372.094 23.8926C372.094 23.13 372.138 22.3819 372.226 21.6486C372.666 18.2165 373.927 15.4738 376.01 13.4204C378.122 11.3376 380.777 10.2963 383.974 10.2963C385.558 10.2963 387.274 10.4283 389.122 10.6923H391.278L389.21 26.3567C389.151 26.7381 389.122 27.2807 389.122 27.9848C389.122 29.5688 389.445 30.8008 390.09 31.6809L388.946 32.6929C388.389 32.1649 387.993 31.5929 387.758 30.9768C387.553 30.3315 387.362 29.4955 387.186 28.4688C386.453 29.9061 385.441 31.0062 384.15 31.7689C382.859 32.5315 381.422 32.9129 379.838 32.9129ZM379.926 31.1528C381.334 31.1528 382.625 30.8008 383.798 30.0968C385.001 29.3635 385.939 28.4248 386.614 27.2807C387.171 26.43 387.538 25.4327 387.714 24.2887L389.342 12.2763C389.019 12.3057 388.521 12.3057 387.846 12.2763C387.201 12.2177 386.717 12.1883 386.394 12.1883C385.367 12.1003 384.473 12.0563 383.71 12.0563C381.95 12.0563 380.366 12.4963 378.958 13.3764C377.579 14.227 376.464 15.3857 375.614 16.8525C374.763 18.3192 374.22 19.9472 373.986 21.7366C373.898 22.3526 373.854 22.954 373.854 23.5406C373.854 25.7114 374.367 27.5301 375.394 28.9968C376.42 30.4342 377.931 31.1528 379.926 31.1528Z" fill="#4C55B7"/>
<path d="M409.622 16.8965C409.681 16.5444 409.71 16.0311 409.71 15.3564C409.71 13.831 409.373 12.5697 408.698 11.5723L409.842 10.5603C410.429 11.1176 410.84 11.7483 411.074 12.4523C411.338 13.1564 411.47 14.007 411.47 15.0044C413.377 11.8657 415.885 10.2963 418.994 10.2963C420.52 10.2963 421.752 10.6923 422.69 11.4843C423.659 12.247 424.245 13.391 424.451 14.9164C425.419 13.3617 426.548 12.203 427.839 11.4403C429.159 10.6776 430.552 10.2963 432.019 10.2963C433.749 10.2963 435.113 10.795 436.111 11.7923C437.108 12.7603 437.607 14.1244 437.607 15.8844C437.607 16.4711 437.578 16.9258 437.519 17.2485L435.363 32.4729H433.647L435.671 17.6445C435.73 17.2925 435.759 16.7938 435.759 16.1484C435.759 13.3617 434.424 11.9683 431.755 11.9683C428.909 11.9683 426.489 13.5524 424.495 16.7204L422.427 32.4729H420.622L422.559 17.6445C422.617 17.3218 422.646 16.8671 422.646 16.2804C422.646 14.9311 422.309 13.875 421.634 13.1124C420.989 12.3497 420.036 11.9683 418.774 11.9683C417.308 11.9683 415.885 12.4377 414.506 13.3764C413.157 14.2857 412.145 15.3857 411.47 16.6764L409.358 32.4729H407.554L409.622 16.8965Z" fill="#4C55B7"/>
<path d="M443.898 22.2206C443.81 22.7486 443.766 23.4233 443.766 24.2447C443.766 26.1514 444.235 27.8087 445.174 29.2168C446.142 30.5955 447.887 31.2848 450.41 31.2848C451.583 31.2848 452.713 31.1088 453.798 30.7568C454.883 30.4048 456.115 29.8621 457.494 29.1288L458.198 30.5808C456.995 31.3142 455.69 31.9009 454.282 32.3409C452.903 32.7515 451.51 32.9569 450.102 32.9569C447.462 32.9569 445.438 32.1942 444.03 30.6688C442.651 29.1141 441.962 27.0021 441.962 24.3327C441.962 23.6286 442.006 22.91 442.094 22.1766C442.387 19.8592 443.032 17.8058 444.03 16.0164C445.027 14.1977 446.288 12.7897 447.814 11.7923C449.368 10.795 451.085 10.2963 452.962 10.2963C455.221 10.3256 457.039 11.0443 458.418 12.4523C459.797 13.831 460.486 15.6644 460.486 17.9525C460.486 18.5978 460.457 19.0965 460.398 19.4485C460.222 20.4166 460.046 21.3406 459.87 22.2206H443.898ZM458.374 20.4606C458.521 19.9619 458.609 19.5365 458.638 19.1845C458.697 18.6565 458.726 18.2752 458.726 18.0405C458.726 16.2218 458.169 14.7404 457.054 13.5964C455.969 12.4523 454.59 11.8803 452.918 11.8803C450.894 11.8803 449.075 12.687 447.462 14.3004C445.878 15.8844 444.792 17.9672 444.206 20.5486L458.374 20.4606Z" fill="#4C55B7"/>
<path d="M466.471 16.8965C466.53 16.5444 466.559 16.0311 466.559 15.3564C466.559 13.831 466.222 12.5697 465.547 11.5723L466.691 10.5603C467.278 11.1176 467.689 11.7483 467.923 12.4523C468.187 13.1564 468.319 14.007 468.319 15.0044C470.226 11.8657 472.734 10.2963 475.844 10.2963C477.369 10.2963 478.601 10.6923 479.54 11.4843C480.508 12.247 481.094 13.391 481.3 14.9164C482.268 13.3617 483.397 12.203 484.688 11.4403C486.008 10.6776 487.401 10.2963 488.868 10.2963C490.599 10.2963 491.963 10.795 492.96 11.7923C493.957 12.7603 494.456 14.1244 494.456 15.8844C494.456 16.4711 494.427 16.9258 494.368 17.2485L492.212 32.4729H490.496L492.52 17.6445C492.579 17.2925 492.608 16.7938 492.608 16.1484C492.608 13.3617 491.273 11.9683 488.604 11.9683C485.759 11.9683 483.338 13.5524 481.344 16.7204L479.276 32.4729H477.472L479.408 17.6445C479.466 17.3218 479.496 16.8671 479.496 16.2804C479.496 14.9311 479.158 13.875 478.484 13.1124C477.838 12.3497 476.885 11.9683 475.624 11.9683C474.157 11.9683 472.734 12.4377 471.355 13.3764C470.006 14.2857 468.994 15.3857 468.319 16.6764L466.207 32.4729H464.403L466.471 16.8965Z" fill="#4C55B7"/>
<path d="M507.787 32.9129C505.03 32.9129 502.83 32.0622 501.187 30.3608C499.574 28.6594 498.767 26.386 498.767 23.5406C498.767 22.8953 498.811 22.2499 498.899 21.6046C499.192 19.4045 499.882 17.4538 500.967 15.7524C502.052 14.0217 503.431 12.687 505.103 11.7483C506.804 10.7803 508.652 10.2963 510.647 10.2963C513.375 10.2963 515.561 11.1616 517.203 12.8923C518.846 14.6231 519.667 16.9258 519.667 19.8005C519.667 20.4166 519.623 21.0619 519.535 21.7366C519.242 23.9366 518.553 25.8874 517.467 27.5887C516.411 29.2608 515.033 30.5662 513.331 31.5049C511.659 32.4435 509.811 32.9129 507.787 32.9129ZM507.875 31.2408C509.547 31.2408 511.087 30.8302 512.495 30.0088C513.933 29.1875 515.106 28.0288 516.015 26.5327C516.954 25.0367 517.541 23.3206 517.775 21.3846C517.863 20.7979 517.907 20.2259 517.907 19.6685C517.907 17.3218 517.247 15.4591 515.927 14.0804C514.607 12.6723 512.818 11.9683 510.559 11.9683C508.887 11.9683 507.347 12.379 505.939 13.2004C504.531 14.0217 503.358 15.1804 502.419 16.6764C501.51 18.1432 500.923 19.8299 500.659 21.7366C500.571 22.3526 500.527 22.9246 500.527 23.4526C500.527 25.8287 501.187 27.7207 502.507 29.1288C503.827 30.5368 505.616 31.2408 507.875 31.2408ZM510.471 6.77618L516.235 0L517.643 1.27603L511.219 7.5682L510.471 6.77618Z" fill="#4C55B7"/>
<path d="M535.218 10.2963C535.628 10.2963 536.362 10.3989 537.418 10.6043L537.286 12.2763C536.464 12.1297 535.775 12.0563 535.218 12.0563C533.604 12.0563 532.24 12.4817 531.126 13.3324C530.627 13.7137 530.084 14.2124 529.498 14.8284C528.94 15.4151 528.456 16.0458 528.046 16.7204L525.933 32.4729H524.129L526.241 16.5444C526.329 15.8404 526.373 15.2244 526.373 14.6964C526.373 13.963 526.285 13.347 526.109 12.8483C525.963 12.3497 525.713 11.8363 525.361 11.3083L526.637 10.2083C527.195 10.8243 527.605 11.5283 527.87 12.3203C528.163 13.083 528.295 13.875 528.266 14.6964C528.735 13.9044 529.263 13.2004 529.85 12.5843C530.436 11.9683 530.994 11.499 531.522 11.1763C532.548 10.5896 533.78 10.2963 535.218 10.2963Z" fill="#4C55B7"/>
<path d="M541.855 10.5163H543.791L540.887 32.5169H538.951L541.855 10.5163ZM543.351 7.21619C542.911 7.21619 542.559 7.08419 542.295 6.82018C542.06 6.55618 541.943 6.21883 541.943 5.80816C541.943 5.30948 542.09 4.8988 542.383 4.57612C542.706 4.22411 543.102 4.04811 543.571 4.04811C543.982 4.04811 544.319 4.18011 544.583 4.44412C544.876 4.70813 545.023 5.04547 545.023 5.45615C545.023 5.95483 544.862 6.38017 544.539 6.73218C544.216 7.05486 543.82 7.21619 543.351 7.21619Z" fill="#4C55B7"/>
<path d="M555.843 32.9129C553.29 32.9129 551.354 32.0769 550.034 30.4048C548.744 28.7328 548.098 26.562 548.098 23.8926C548.098 23.13 548.142 22.3819 548.23 21.6486C548.67 18.2165 549.932 15.4738 552.014 13.4204C554.127 11.3376 556.781 10.2963 559.979 10.2963C561.563 10.2963 563.279 10.4283 565.127 10.6923H567.283L565.215 26.3567C565.156 26.7381 565.127 27.2807 565.127 27.9848C565.127 29.5688 565.449 30.8008 566.095 31.6809L564.951 32.6929C564.393 32.1649 563.997 31.5929 563.763 30.9768C563.557 30.3315 563.367 29.4955 563.191 28.4688C562.457 29.9061 561.445 31.0062 560.155 31.7689C558.864 32.5315 557.427 32.9129 555.843 32.9129ZM555.931 31.1528C557.339 31.1528 558.629 30.8008 559.803 30.0968C561.005 29.3635 561.944 28.4248 562.619 27.2807C563.176 26.43 563.543 25.4327 563.719 24.2887L565.347 12.2763C565.024 12.3057 564.525 12.3057 563.851 12.2763C563.205 12.2177 562.721 12.1883 562.399 12.1883C561.372 12.1003 560.477 12.0563 559.715 12.0563C557.955 12.0563 556.371 12.4963 554.963 13.3764C553.584 14.227 552.469 15.3857 551.618 16.8525C550.768 18.3192 550.225 19.9472 549.99 21.7366C549.902 22.3526 549.858 22.954 549.858 23.5406C549.858 25.7114 550.372 27.5301 551.398 28.9968C552.425 30.4342 553.936 31.1528 555.931 31.1528Z" fill="#4C55B7"/>
</svg>
