<svg width="26" height="19" viewBox="0 0 26 19" fill="none" xmlns="http://www.w3.org/2000/svg">
<path d="M10.4 13L17.147 9.1L10.4 5.2V13ZM25.428 2.821C25.597 3.432 25.714 4.251 25.792 5.291C25.883 6.331 25.922 7.228 25.922 8.008L26 9.1C26 11.947 25.792 14.04 25.428 15.379C25.103 16.549 24.349 17.303 23.179 17.628C22.568 17.797 21.45 17.914 19.734 17.992C18.044 18.083 16.497 18.122 15.067 18.122L13 18.2C7.553 18.2 4.16 17.992 2.821 17.628C1.651 17.303 0.897 16.549 0.572 15.379C0.403 14.768 0.286 13.949 0.208 12.909C0.117 11.869 0.0779999 10.972 0.0779999 10.192L0 9.1C0 6.253 0.208 4.16 0.572 2.821C0.897 1.651 1.651 0.897 2.821 0.572C3.432 0.403 4.55 0.286 6.266 0.208C7.956 0.117 9.503 0.0779999 10.933 0.0779999L13 0C18.447 0 21.84 0.208 23.179 0.572C24.349 0.897 25.103 1.651 25.428 2.821Z" fill="#DF722C"/>
</svg>
