<svg width="25" height="25" viewBox="0 0 25 25" fill="none" xmlns="http://www.w3.org/2000/svg">
<path d="M9.24609 18.4922C6.66193 18.4922 4.47487 17.5972 2.68492 15.8073C0.894974 14.0173 0 11.8303 0 9.24609C0 6.66193 0.894974 4.47487 2.68492 2.68492C4.47487 0.894974 6.66193 0 9.24609 0C11.8303 0 14.0173 0.894974 15.8073 2.68492C17.5972 4.47487 18.4922 6.66193 18.4922 9.24609C18.4922 10.2892 18.3262 11.2731 17.9943 12.1977C17.6624 13.1223 17.2119 13.9403 16.643 14.6515L24.6088 22.6174C24.8696 22.8781 25 23.2101 25 23.6131C25 24.0161 24.8696 24.348 24.6088 24.6088C24.348 24.8696 24.0161 25 23.6131 25C23.2101 25 22.8781 24.8696 22.6174 24.6088L14.6515 16.643C13.9403 17.2119 13.1223 17.6624 12.1977 17.9943C11.2731 18.3262 10.2892 18.4922 9.24609 18.4922ZM9.24609 15.6472C11.0242 15.6472 12.5356 15.0249 13.7802 13.7802C15.0249 12.5356 15.6472 11.0242 15.6472 9.24609C15.6472 7.46799 15.0249 5.95661 13.7802 4.71195C12.5356 3.46728 11.0242 2.84495 9.24609 2.84495C7.46799 2.84495 5.95661 3.46728 4.71195 4.71195C3.46728 5.95661 2.84495 7.46799 2.84495 9.24609C2.84495 11.0242 3.46728 12.5356 4.71195 13.7802C5.95661 15.0249 7.46799 15.6472 9.24609 15.6472Z" fill="#F9F9F9"/>
</svg>
